<?xml version="1.0" encoding="UTF-8"?>
<svg width="211px" height="34px" viewBox="0 0 211 34" version="1.1" xmlns="http://www.w3.org/2000/svg" xmlns:xlink="http://www.w3.org/1999/xlink">
    <title>logo</title>
    <g id="页面-1" stroke="none" stroke-width="1" fill="none" fill-rule="evenodd">
        <g id="logo" transform="translate(0.000000, -0.000000)" fill-rule="nonzero">
            <path d="M11.8721672,5.68434189e-14 L11.8721672,25.6533963 L29,25.6533963 L29,34 L0,34 L0,14.4139369 C0,7.22760985 5.11854412,1.24947836 11.8721672,5.68434189e-14 Z" id="Combined-Shape" fill="#0480D5"></path>
            <path d="M39.7063712,24.6288089 L16.9141274,24.6288089 L16.9141274,9.55955679 C16.9141274,3.26565247 22.016345,-1.8365651 28.3102493,-1.8365651 C34.6041537,-1.8365651 39.7063712,3.26565247 39.7063712,9.55955679 L39.7063712,24.6288089 Z" id="Combined-Shape" fill="#31C2B2" transform="translate(28.310249, 11.396122) rotate(90.000000) translate(-28.310249, -11.396122) "></path>
            <path d="M15,5.68434189e-14 C22.7947338,0.372072395 29,6.80120724 29,14.6777352 L29,23 L15,23 L15,5.68434189e-14 L15,5.68434189e-14 Z" id="Combined-Shape" fill="#353843"></path>
            <polygon id="路径" fill="#000000" points="47.0929688 34 47.0929688 6.25 48.4949219 6.25 65.5929688 21.6570313 65.5929688 6.25 68.6859375 6.25 68.6859375 34 67.2695313 34 50.1859375 18.5929688 50.1859375 34"></polygon>
            <path d="M70.6429688,9.34296875 L70.6429688,6.25 L76.8,6.25 L76.8,9.34296875 L70.6429688,9.34296875 Z M70.6429688,34 L70.6429688,12.4070313 L76.8,12.4070313 L76.8,34 L70.6429688,34 Z" id="形状" fill="#000000"></path>
            <path d="M94.1929687,18.5929688 L91.1289062,18.5929688 C90.8880208,16.5309896 89.8570312,15.5 88.0359375,15.5 C87.1880208,15.5 86.4605469,15.8035156 85.8535156,16.4105469 C85.2464844,17.0175781 84.9429687,17.7450521 84.9429687,18.5929688 L84.9429687,27.8429688 C84.9429687,28.6716146 85.2440755,29.3894531 85.8462891,29.9964844 C86.4485026,30.6035156 87.1783854,30.9070313 88.0359375,30.9070313 C89.8570312,30.9070313 90.8880208,29.8856771 91.1289062,27.8429688 L94.1929687,27.8429688 C93.9424479,31.9476563 91.8901042,34 88.0359375,34 L84.9429687,34 C83.2567708,34 81.8090495,33.3953776 80.5998047,32.1861328 C79.3905599,30.976888 78.7859375,29.5291667 78.7859375,27.8429688 L78.7859375,18.5929688 C78.7859375,16.8875 79.3929687,15.4301432 80.6070312,14.2208984 C81.8210937,13.0116536 83.2664062,12.4070313 84.9429687,12.4070313 L88.0359375,12.4070313 C91.909375,12.4070313 93.9617187,14.4690104 94.1929687,18.5929688 Z" id="路径" fill="#000000"></path>
            <path d="M114.678906,24.75 L102.335938,24.75 L102.335938,27.8429688 C102.335938,28.6716146 102.637044,29.3894531 103.239258,29.9964844 C103.841471,30.6035156 104.571354,30.9070313 105.428906,30.9070313 L108.521875,30.9070313 C110.564583,30.9070313 111.585938,29.8856771 111.585938,27.8429688 L114.678906,27.8429688 C114.197135,31.9476563 112.144792,34 108.521875,34 L102.335938,34 C100.64974,34 99.2020182,33.3953776 97.9927734,32.1861328 C96.7835286,30.976888 96.1789063,29.5291667 96.1789063,27.8429688 L96.1789063,18.5929688 C96.1789063,16.8875 96.7859375,15.4301432 98,14.2208984 C99.2140625,13.0116536 100.659375,12.4070313 102.335938,12.4070313 L108.521875,12.4070313 C110.208073,12.4070313 111.655794,13.0164714 112.865039,14.2353516 C114.074284,15.4542318 114.678906,16.9067708 114.678906,18.5929688 L114.678906,24.75 Z M102.335938,21.6570313 L108.521875,21.6570313 L108.521875,18.5929688 C108.521875,17.7450521 108.215951,17.0175781 107.604102,16.4105469 C106.992253,15.8035156 106.267187,15.5 105.428906,15.5 C104.58099,15.5 103.853516,15.8035156 103.246484,16.4105469 C102.639453,17.0175781 102.335938,17.7450521 102.335938,18.5929688 L102.335938,21.6570313 Z" id="形状" fill="#000000"></path>
            <path d="M116.635938,34 L116.635938,6.25 L128.978906,6.25 C130.665104,6.25 132.112826,6.85703125 133.32207,8.07109375 C134.531315,9.28515625 135.135938,10.7304688 135.135938,12.4070313 L135.135938,15.5 C135.135938,17.1861979 134.531315,18.6339193 133.32207,19.8431641 C132.112826,21.0524089 130.665104,21.6570313 128.978906,21.6570313 L122.792969,21.6570313 L122.792969,34 L116.635938,34 Z M122.792969,18.5929688 L125.885938,18.5929688 C126.724219,18.5929688 127.449284,18.2870443 128.061133,17.6751953 C128.672982,17.0633464 128.978906,16.3382813 128.978906,15.5 L128.978906,12.4070313 C128.978906,11.56875 128.672982,10.8485026 128.061133,10.2462891 C127.449284,9.64407552 126.724219,9.34296875 125.885938,9.34296875 L122.792969,9.34296875 L122.792969,18.5929688 Z" id="形状" fill="#000000"></path>
            <path d="M137.092969,34 L137.092969,6.25 L143.25,6.25 L143.25,15.5 C143.37526,14.459375 143.695638,13.683724 144.211133,13.1730469 C144.726628,12.6623698 145.43724,12.4070313 146.342969,12.4070313 L149.435938,12.4070313 C151.122135,12.4070313 152.569857,13.0164714 153.779102,14.2353516 C154.988346,15.4542318 155.592969,16.9067708 155.592969,18.5929688 L155.592969,34 L149.435938,34 L149.435938,18.5929688 C149.435938,17.7450521 149.130013,17.0175781 148.518164,16.4105469 C147.906315,15.8035156 147.18125,15.5 146.342969,15.5 C145.495052,15.5 144.767578,15.8035156 144.160547,16.4105469 C143.553516,17.0175781 143.25,17.7450521 143.25,18.5929688 L143.25,34 L137.092969,34 Z" id="路径" fill="#000000"></path>
            <path d="M163.707031,12.4070313 L169.892969,12.4070313 C171.579167,12.4070313 173.026888,13.0164714 174.236133,14.2353516 C175.445378,15.4542318 176.05,16.9067708 176.05,18.5929688 L176.05,27.8429688 C176.05,29.5098958 175.445378,30.9527995 174.236133,32.1716797 C173.026888,33.3905599 171.579167,34 169.892969,34 L163.707031,34 C162.020833,34 160.573112,33.3953776 159.363867,32.1861328 C158.154622,30.976888 157.55,29.5291667 157.55,27.8429688 L157.55,18.5929688 C157.55,16.8875 158.157031,15.4301432 159.371094,14.2208984 C160.585156,13.0116536 162.030469,12.4070313 163.707031,12.4070313 Z M163.707031,18.5929688 L163.707031,27.8429688 C163.707031,28.6716146 164.008138,29.3894531 164.610352,29.9964844 C165.212565,30.6035156 165.942448,30.9070313 166.8,30.9070313 C167.657552,30.9070313 168.387435,30.6035156 168.989648,29.9964844 C169.591862,29.3894531 169.892969,28.6716146 169.892969,27.8429688 L169.892969,18.5929688 C169.892969,17.7450521 169.587044,17.0175781 168.975195,16.4105469 C168.363346,15.8035156 167.638281,15.5 166.8,15.5 C165.952083,15.5 165.224609,15.8035156 164.617578,16.4105469 C164.010547,17.0175781 163.707031,17.7450521 163.707031,18.5929688 Z" id="形状" fill="#000000"></path>
            <path d="M181.1,6.25 L187.257031,6.25 L187.257031,12.4070313 L190.35,12.4070313 L190.35,15.5 L187.257031,15.5 L187.257031,27.8429688 C187.257031,28.8354167 187.584635,29.5942057 188.239844,30.1193359 C188.895052,30.6444661 189.502083,30.9070313 190.060938,30.9070313 L190.35,30.9070313 L190.35,34 L187.257031,34 C185.561198,34 184.111068,33.3953776 182.906641,32.1861328 C181.702214,30.976888 181.1,29.5291667 181.1,27.8429688 L181.1,15.5 L178.007031,15.5 L178.007031,12.4070313 L181.1,12.4070313 L181.1,6.25 Z" id="路径" fill="#000000"></path>
            <path d="M198.464063,12.4070313 L204.65,12.4070313 C206.336198,12.4070313 207.783919,13.0164714 208.993164,14.2353516 C210.202409,15.4542318 210.807031,16.9067708 210.807031,18.5929688 L210.807031,27.8429688 C210.807031,29.5098958 210.202409,30.9527995 208.993164,32.1716797 C207.783919,33.3905599 206.336198,34 204.65,34 L198.464063,34 C196.777865,34 195.330143,33.3953776 194.120898,32.1861328 C192.911654,30.976888 192.307031,29.5291667 192.307031,27.8429688 L192.307031,18.5929688 C192.307031,16.8875 192.914063,15.4301432 194.128125,14.2208984 C195.342187,13.0116536 196.7875,12.4070313 198.464063,12.4070313 Z M198.464063,18.5929688 L198.464063,27.8429688 C198.464063,28.6716146 198.765169,29.3894531 199.367383,29.9964844 C199.969596,30.6035156 200.699479,30.9070313 201.557031,30.9070313 C202.414583,30.9070313 203.144466,30.6035156 203.74668,29.9964844 C204.348893,29.3894531 204.65,28.6716146 204.65,27.8429688 L204.65,18.5929688 C204.65,17.7450521 204.344076,17.0175781 203.732227,16.4105469 C203.120378,15.8035156 202.395313,15.5 201.557031,15.5 C200.709115,15.5 199.981641,15.8035156 199.374609,16.4105469 C198.767578,17.0175781 198.464063,17.7450521 198.464063,18.5929688 Z" id="形状" fill="#000000"></path>
        </g>
    </g>
</svg>